PathFileType	4	(X/Y/Z)	Patient4_TMGait_0pt7_02_right_24.trc.trc
DataRate	CameraRate	NumFrames	NumMarkers	Units	OrigDataRate	OrigDataStartFrame	OrigNumFrames
86.956521739130	86.956521739130	4	33	mm	86.956521739130	1	       141
Frame#	Time	Sacral			L.Shoulder			Chest			R.Shoulder			Neck			R.ASIS			L.ASIS			R.Thigh.Superior			R.Thigh.Lateral			R.Thigh.Inferior			R.Patella			L.Thigh.Superior			L.Thigh.Lateral			L.Thigh.Inferior			L.Patella			L.Shank.Superior			L.Shank.Lateral			L.Shank.Inferior			R.Shank.Superior			R.Shank.Lateral			R.Shank.Inferior			R.Heel			R.Midfoot.Superior			R.Midfoot.Lateral			R.Toe			L.Heel			L.Midfoot.Lateral			L.Midfoot.Superior			L.Toe			L.Elbow			L.Wrist			R.Elbow			R.Wrist			
		X1	Y1	Z1	X2	Y2	Z2	X3	Y3	Z3	X4	Y4	Z4	X5	Y5	Z5	X6	Y6	Z6	X7	Y7	Z7	X8	Y8	Z8	X9	Y9	Z9	X10	Y10	Z10	X11	Y11	Z11	X12	Y12	Z12	X13	Y13	Z13	X14	Y14	Z14	X15	Y15	Z15	X16	Y16	Z16	X17	Y17	Z17	X18	Y18	Z18	X19	Y19	Z19	X20	Y20	Z20	X21	Y21	Z21	X22	Y22	Z22	X23	Y23	Z23	X24	Y24	Z24	X25	Y25	Z25	X26	Y26	Z26	X27	Y27	Z27	X28	Y28	Z28	X29	Y29	Z29	X30	Y30	Z30	X31	Y31	Z31	X32	Y32	Z32	X33	Y33	Z33	

1	26.730000000000	849.301710884522	1017.448824524027	432.542221227211	1047.968353948508	1441.875374887005	263.999090650678	1146.780217065401	1367.127797843311	427.004909534594	1058.908394122759	1441.730281132052	599.852993724881	1045.248775097489	1499.417470526472	419.911729432317	1065.987125153722	949.363493233575	560.347477523260	1070.842491242155	964.379728553861	287.680164196041	1148.182581989456	779.988343713140	534.503116524124	1106.589584237803	660.133228652401	608.299673812437	1197.879580178539	618.862037245881	531.111612775841	1213.688257188846	503.288278649137	555.259851672362	1117.222925933201	753.004328917439	322.219152974482	1027.828451134443	637.370991770990	261.788281017300	1108.118514904585	559.509328542155	330.891039179535	1107.865927930092	489.497997282047	341.541092955029	1077.911830736818	417.533074634583	332.540494331423	986.100648226507	305.416197077207	281.361399089169	1031.539572609956	193.470308117043	354.745336227091	1131.073549340565	433.573497905355	562.847691311497	1004.049223443484	406.670078402634	619.008891491786	983.225437308489	296.980665679936	573.402650328994	781.096712972713	257.561736044005	540.998732159257	937.954869845502	173.282254950213	583.099514180067	827.583079202571	185.006655848371	612.092594695037	985.700417420104	51.369602457956	603.458193975532	898.935321491244	39.497993404817	395.686800111110	973.239501510720	36.441073048231	315.293822969775	1056.683049624473	96.539641375742	343.099611401726	1185.421953133170	41.198084928188	314.793451057833	1030.298952851789	1104.118678995949	113.922122084549	1186.907742679418	893.381933523654	127.938826783335	1035.900155664931	1092.104207909651	710.455910914536	1259.988942681086	971.837401305112	662.776497489859	
2	26.741500000000	847.526477578115	1017.539236592619	431.037326136956	1048.478548082312	1441.962054223801	263.318861559008	1145.598898039565	1367.084124106325	427.195539462060	1056.299495576385	1441.868524599144	599.052369113930	1044.273057978147	1499.565899693932	419.143803696897	1063.956106967352	950.130045531850	560.531217199528	1070.541809726164	964.843493904310	287.371471367044	1148.883756426460	784.441332806683	534.263124560200	1110.647765978049	663.856262074099	608.128900448293	1202.402159104361	624.618392195128	530.620062998661	1221.567505834870	510.021805648944	555.012995535195	1113.853587410467	751.962017328002	322.523316517498	1023.550667943044	637.299248492207	261.288651675082	1102.444958358951	558.577127044322	330.696078310382	1101.254253650267	488.682772845753	341.366480152413	1071.180533236183	417.001904256265	332.292477560319	978.932243348644	305.302810553751	281.053912924837	1023.557939408385	193.194913736381	354.657246719866	1141.625259699690	437.647353096598	562.801819623110	1016.100746810391	405.569914870822	618.895909358450	999.905394757005	295.264717224846	573.555986493363	799.992705497494	247.038627800514	541.208092168782	960.480866818692	170.715957154137	584.151138623651	849.521941872794	176.916910632868	612.344254806752	1013.078410643358	50.681783642464	604.135152991938	890.344971028740	39.507790016538	395.644562231755	964.739798306874	36.419747832541	315.241717771985	1048.192282061773	96.497223719359	343.038240151976	1176.928230451291	41.121805316012	314.742631804906	1039.876968535764	1105.631411051884	111.150523705028	1207.904970986469	906.227530503936	128.323168700721	1029.462716622765	1091.921461059184	709.774715342785	1238.750341125005	950.817365951058	668.546169308459	
3	26.753000000000	845.786348566331	1017.615713651981	429.580532719587	1048.967747487783	1442.038448125646	262.666667659598	1144.434217161196	1367.033509158409	427.392525377922	1053.741641552427	1441.990235633533	598.293961842913	1043.312116688620	1499.699545218712	418.406559413547	1061.963398984248	950.871419271334	560.720047437892	1070.156250718689	965.227833217138	287.115087905458	1149.535743691270	788.780357896798	534.043712998981	1114.539517805895	667.479973215564	607.963959865840	1206.747331085754	630.218637988140	530.163112891863	1229.164454652728	516.621982534310	554.804802892326	1110.537805447439	750.926404955016	322.826010556756	1019.331217410892	637.225611633043	260.804785967804	1096.842827412172	557.652934306578	330.510144303543	1094.719371758057	487.872075937564	341.205703873079	1064.535782206380	416.472071589435	332.055856641031	971.858485892696	305.187162383713	280.755718182016	1015.677646722904	192.920575943659	354.573375730696	1151.935518583613	441.621768031258	562.794867796556	1027.993428585982	404.331329541936	618.875822569950	1016.454575386284	293.441201641857	573.787062236542	818.829808765464	236.388748952422	541.558272138169	982.879190029871	168.024149902456	585.248064731824	871.415629443613	168.737747351707	612.730156121495	1040.373872961182	49.966877114640	604.913359272026	881.867290309011	39.517736630297	395.599228549493	956.344016022919	36.398077640228	315.191806720601	1039.806386200209	96.454270050849	342.980940187300	1168.539160924233	41.047677730186	314.693582402089	1049.327081760093	1107.165138892327	108.453087492207	1228.479635672603	919.058359885809	128.790301875895	1023.203003416887	1091.727604813297	709.162560141215	1217.366047454899	930.348922850940	674.335743378466	
4	26.764500000000	844.119208176708	1017.661771312770	428.226007042090	1049.415272805679	1442.091259751540	262.078530097458	1143.303818169368	1366.961274500395	427.607272403190	1051.293016614531	1442.071654628533	597.622670984092	1042.383026096841	1499.799413159302	417.738722796350	1060.050294688632	951.555104615678	560.923113094965	1069.615924465297	965.463608116981	286.953518696110	1150.063185916393	792.845140835927	533.872917902000	1118.053697388924	670.865825701955	607.832129256221	1210.686103071505	635.453453464029	529.789149463746	1236.157965345728	522.932701237828	554.672141563532	1107.291267809578	749.889105026079	323.128826255052	1015.170343216654	637.148015357946	260.351927298338	1091.308398562072	556.733863203786	330.340314895963	1088.256097161021	487.068094377497	341.067086410540	1057.979226102868	415.944795811484	331.839003804668	964.886128078289	305.068096812287	280.475082502687	1007.910012187032	192.648532796456	354.497573082189	1161.771223041055	445.388367583963	562.870046065847	1039.660544546352	402.779771199516	619.065076687510	1032.881479427834	291.405039270352	574.183058051041	837.816001594888	225.400016288075	542.217817249209	1005.250245108659	165.134820563454	586.448571790589	893.498631666831	160.367384787547	613.404101364869	1067.759331776962	49.340077069561	605.884279608074	873.522827920102	39.529567471809	395.549020196119	948.065062888676	36.376335270219	315.146648808445	1031.539454334598	96.410212014236	342.931341728504	1160.267469981844	40.976832017697	314.648528950556	1058.592332366907	1108.774385835815	105.894757423721	1248.306257478394	931.990146890916	129.453019371807	1017.172854190300	1091.540676134958	708.688685562440	1195.563527979396	911.000034315423	680.152749828606	
